<svg width="95" height="15" viewBox="0 0 95 15" fill="none" xmlns="http://www.w3.org/2000/svg">
<path d="M0.388672 14V1.15039H3.87793V14H0.388672ZM10.263 14H6.84406V1.15039H14.4378V3.93652H10.263V6.38867H14.1126V9.1748H10.263V14ZM22.3258 14L19.6979 4.74512H19.6188C19.6422 4.98535 19.6657 5.31055 19.6891 5.7207C19.7184 6.13086 19.7448 6.57324 19.7682 7.04785C19.7916 7.52246 19.8034 7.97949 19.8034 8.41895V14H16.7272V1.15039H21.3502L24.0309 10.2734H24.1012L26.7291 1.15039H31.361V14H28.1705V8.36621C28.1705 7.96191 28.1764 7.52832 28.1881 7.06543C28.2057 6.59668 28.2233 6.15723 28.2409 5.74707C28.2643 5.33105 28.2848 5.00293 28.3024 4.7627H28.2233L25.6305 14H22.3258ZM42.7119 10.0977C42.7119 10.7949 42.5361 11.457 42.1845 12.084C41.833 12.7051 41.2851 13.209 40.541 13.5957C39.8027 13.9824 38.8476 14.1758 37.6757 14.1758C37.0898 14.1758 36.5742 14.1494 36.1289 14.0967C35.6894 14.0439 35.2793 13.959 34.8984 13.8418C34.5175 13.7188 34.122 13.5605 33.7119 13.3672V10.2734C34.4091 10.625 35.1123 10.8945 35.8213 11.082C36.5302 11.2637 37.1718 11.3545 37.7461 11.3545C38.0918 11.3545 38.373 11.3135 38.5898 11.2314C38.8125 11.1494 38.9765 11.0381 39.082 10.8975C39.1875 10.751 39.2402 10.584 39.2402 10.3965C39.2402 10.1738 39.1611 9.98633 39.0029 9.83398C38.8505 9.67578 38.6045 9.51172 38.2646 9.3418C37.9248 9.17188 37.4765 8.96094 36.9199 8.70898C36.4453 8.48633 36.0146 8.25781 35.6279 8.02344C35.247 7.78906 34.9189 7.52246 34.6435 7.22363C34.374 6.91895 34.166 6.56445 34.0195 6.16016C33.873 5.75586 33.7998 5.27832 33.7998 4.72754C33.7998 3.90137 34.0019 3.20996 34.4062 2.65332C34.8164 2.09082 35.3847 1.66895 36.1113 1.3877C36.8437 1.10645 37.6875 0.96582 38.6425 0.96582C39.4804 0.96582 40.2334 1.05957 40.9013 1.24707C41.5752 1.43457 42.1787 1.64844 42.7119 1.88867L41.6484 4.56934C41.0976 4.31738 40.5556 4.11816 40.0224 3.97168C39.4892 3.81934 38.9941 3.74316 38.5371 3.74316C38.2382 3.74316 37.9921 3.78125 37.7988 3.85742C37.6113 3.92773 37.4707 4.02441 37.3769 4.14746C37.289 4.27051 37.2451 4.41113 37.2451 4.56934C37.2451 4.76855 37.3213 4.94727 37.4736 5.10547C37.6318 5.26367 37.8925 5.43652 38.2558 5.62402C38.625 5.80566 39.1259 6.04297 39.7588 6.33594C40.3857 6.61719 40.9189 6.92188 41.3584 7.25C41.7978 7.57227 42.1318 7.96191 42.3603 8.41895C42.5947 8.87012 42.7119 9.42969 42.7119 10.0977Z" fill="#379731"/>
<path d="M55.8997 14H53.3069L47.0139 3.74316H46.9348C46.9583 4.08887 46.9788 4.45508 46.9964 4.8418C47.0198 5.22852 47.0374 5.62695 47.0491 6.03711C47.0667 6.44727 47.0813 6.86328 47.093 7.28516V14H45.177V1.15039H47.7522L54.0364 11.3369H54.0979C54.0862 11.0381 54.0716 10.6953 54.054 10.3086C54.0364 9.92188 54.0188 9.52344 54.0013 9.11328C53.9895 8.69727 53.9807 8.2959 53.9749 7.90918V1.15039H55.8997V14ZM66.732 14H59.4547V1.15039H66.732V2.92578H61.5641V6.41504H66.4068V8.18164H61.5641V12.2158H66.732V14ZM84.8857 1.15039L81.5282 14H79.2255L77.081 6.30078C77.0282 6.11328 76.9697 5.89062 76.9052 5.63281C76.8407 5.375 76.7763 5.11133 76.7118 4.8418C76.6532 4.57227 76.6005 4.32617 76.5536 4.10352C76.5126 3.875 76.4833 3.69922 76.4657 3.57617C76.454 3.69922 76.4277 3.87207 76.3866 4.09473C76.3456 4.31738 76.2958 4.56348 76.2372 4.83301C76.1845 5.09668 76.1259 5.36035 76.0614 5.62402C75.997 5.88184 75.9384 6.11035 75.8857 6.30957L73.7763 14H71.4823L68.1337 1.15039H70.2519L72.1064 8.68262C72.165 8.92285 72.2236 9.18359 72.2822 9.46484C72.3466 9.74023 72.4052 10.0186 72.4579 10.2998C72.5165 10.5811 72.5693 10.8564 72.6161 11.126C72.663 11.3896 72.7011 11.6299 72.7304 11.8467C72.7597 11.624 72.7978 11.3779 72.8447 11.1084C72.8915 10.833 72.9413 10.5547 72.9941 10.2734C73.0527 9.98633 73.1113 9.71094 73.1698 9.44727C73.2343 9.18359 73.2988 8.94629 73.3632 8.73535L75.455 1.15039H77.5116L79.6474 8.76172C79.7118 8.97852 79.7734 9.22168 79.832 9.49121C79.8964 9.76074 79.9579 10.0361 80.0165 10.3174C80.0751 10.5986 80.1279 10.8711 80.1747 11.1348C80.2216 11.3984 80.2597 11.6357 80.289 11.8467C80.33 11.5596 80.3827 11.2314 80.4472 10.8623C80.5116 10.4932 80.5849 10.1182 80.6669 9.7373C80.7489 9.35645 80.831 9.00488 80.913 8.68262L82.7587 1.15039H84.8857ZM94.303 10.502C94.303 11.2637 94.1155 11.9199 93.7405 12.4707C93.3713 13.0215 92.8381 13.4434 92.1409 13.7363C91.4495 14.0293 90.6233 14.1758 89.6623 14.1758C89.1936 14.1758 88.7454 14.1494 88.3176 14.0967C87.8899 14.0439 87.4856 13.9678 87.1047 13.8682C86.7297 13.7627 86.387 13.6367 86.0764 13.4902V11.5039C86.5979 11.7324 87.1809 11.9404 87.8254 12.1279C88.47 12.3096 89.1262 12.4004 89.7942 12.4004C90.3391 12.4004 90.7903 12.3301 91.1477 12.1895C91.511 12.043 91.7805 11.8379 91.9563 11.5742C92.1321 11.3047 92.22 10.9912 92.22 10.6338C92.22 10.2529 92.1174 9.93066 91.9123 9.66699C91.7073 9.40332 91.3967 9.16309 90.9807 8.94629C90.5705 8.72363 90.0549 8.48633 89.4338 8.23438C89.012 8.06445 88.6077 7.87109 88.2209 7.6543C87.8401 7.4375 87.5002 7.18262 87.2014 6.88965C86.9026 6.59668 86.6653 6.25098 86.4895 5.85254C86.3196 5.44824 86.2346 4.97363 86.2346 4.42871C86.2346 3.70215 86.4075 3.08105 86.7532 2.56543C87.1047 2.0498 87.5969 1.6543 88.2297 1.37891C88.8684 1.10352 89.6125 0.96582 90.4622 0.96582C91.136 0.96582 91.7688 1.03613 92.3606 1.17676C92.9582 1.31738 93.5442 1.5166 94.1184 1.77441L93.4504 3.4707C92.9231 3.25391 92.4104 3.08105 91.9123 2.95215C91.4202 2.82324 90.9163 2.75879 90.4006 2.75879C89.9553 2.75879 89.5774 2.82617 89.2668 2.96094C88.9563 3.0957 88.719 3.28613 88.5549 3.53223C88.3967 3.77246 88.3176 4.05957 88.3176 4.39355C88.3176 4.76855 88.4084 5.08496 88.5901 5.34277C88.7776 5.59473 89.0647 5.82617 89.4514 6.03711C89.844 6.24805 90.3479 6.48242 90.9631 6.74023C91.6721 7.0332 92.2727 7.34082 92.7649 7.66309C93.2629 7.98535 93.6438 8.37207 93.9075 8.82324C94.1711 9.26855 94.303 9.82812 94.303 10.502Z" fill="#1E1E1E"/>
</svg>
