<svg width="74" height="15" viewBox="0 0 74 15" fill="none" xmlns="http://www.w3.org/2000/svg">
<path d="M0.388672 14V1.15039H3.86035V11.1963H8.80859V14H0.388672ZM18.929 14L18.2962 11.5918H14.1214L13.471 14H9.65656L13.8489 1.09766H18.4808L22.7259 14H18.929ZM17.5755 8.74414L17.0218 6.63477C16.9632 6.40625 16.8782 6.08105 16.7669 5.65918C16.6556 5.23145 16.5443 4.79199 16.4329 4.34082C16.3275 3.88379 16.2454 3.50879 16.1868 3.21582C16.1341 3.50879 16.0579 3.87207 15.9583 4.30566C15.8646 4.7334 15.765 5.1582 15.6595 5.58008C15.5599 6.00195 15.472 6.35352 15.3958 6.63477L14.8421 8.74414H17.5755Z" fill="#BF0311"/>
<path d="M35.3248 14H32.7321L26.4391 3.74316H26.36C26.3834 4.08887 26.4039 4.45508 26.4215 4.8418C26.445 5.22852 26.4625 5.62695 26.4743 6.03711C26.4918 6.44727 26.5065 6.86328 26.5182 7.28516V14H24.6022V1.15039H27.1774L33.4616 11.3369H33.5231C33.5114 11.0381 33.4967 10.6953 33.4791 10.3086C33.4616 9.92188 33.444 9.52344 33.4264 9.11328C33.4147 8.69727 33.4059 8.2959 33.4 7.90918V1.15039H35.3248V14ZM46.1572 14H38.8798V1.15039H46.1572V2.92578H40.9892V6.41504H45.832V8.18164H40.9892V12.2158H46.1572V14ZM64.3108 1.15039L60.9534 14H58.6507L56.5061 6.30078C56.4534 6.11328 56.3948 5.89062 56.3304 5.63281C56.2659 5.375 56.2014 5.11133 56.137 4.8418C56.0784 4.57227 56.0257 4.32617 55.9788 4.10352C55.9378 3.875 55.9085 3.69922 55.8909 3.57617C55.8792 3.69922 55.8528 3.87207 55.8118 4.09473C55.7708 4.31738 55.721 4.56348 55.6624 4.83301C55.6096 5.09668 55.5511 5.36035 55.4866 5.62402C55.4221 5.88184 55.3636 6.11035 55.3108 6.30957L53.2014 14H50.9075L47.5589 1.15039H49.677L51.5315 8.68262C51.5901 8.92285 51.6487 9.18359 51.7073 9.46484C51.7718 9.74023 51.8304 10.0186 51.8831 10.2998C51.9417 10.5811 51.9944 10.8564 52.0413 11.126C52.0882 11.3896 52.1263 11.6299 52.1555 11.8467C52.1848 11.624 52.2229 11.3779 52.2698 11.1084C52.3167 10.833 52.3665 10.5547 52.4192 10.2734C52.4778 9.98633 52.5364 9.71094 52.595 9.44727C52.6595 9.18359 52.7239 8.94629 52.7884 8.73535L54.8802 1.15039H56.9368L59.0725 8.76172C59.137 8.97852 59.1985 9.22168 59.2571 9.49121C59.3216 9.76074 59.3831 10.0361 59.4417 10.3174C59.5003 10.5986 59.553 10.8711 59.5999 11.1348C59.6468 11.3984 59.6848 11.6357 59.7141 11.8467C59.7552 11.5596 59.8079 11.2314 59.8723 10.8623C59.9368 10.4932 60.01 10.1182 60.0921 9.7373C60.1741 9.35645 60.2561 9.00488 60.3382 8.68262L62.1839 1.15039H64.3108ZM73.7281 10.502C73.7281 11.2637 73.5406 11.9199 73.1656 12.4707C72.7965 13.0215 72.2633 13.4434 71.566 13.7363C70.8746 14.0293 70.0484 14.1758 69.0875 14.1758C68.6188 14.1758 68.1705 14.1494 67.7428 14.0967C67.315 14.0439 66.9107 13.9678 66.5299 13.8682C66.1549 13.7627 65.8121 13.6367 65.5016 13.4902V11.5039C66.023 11.7324 66.6061 11.9404 67.2506 12.1279C67.8951 12.3096 68.5514 12.4004 69.2193 12.4004C69.7643 12.4004 70.2154 12.3301 70.5729 12.1895C70.9361 12.043 71.2057 11.8379 71.3814 11.5742C71.5572 11.3047 71.6451 10.9912 71.6451 10.6338C71.6451 10.2529 71.5426 9.93066 71.3375 9.66699C71.1324 9.40332 70.8219 9.16309 70.4059 8.94629C69.9957 8.72363 69.4801 8.48633 68.859 8.23438C68.4371 8.06445 68.0328 7.87109 67.6461 7.6543C67.2652 7.4375 66.9254 7.18262 66.6266 6.88965C66.3277 6.59668 66.0904 6.25098 65.9146 5.85254C65.7447 5.44824 65.6598 4.97363 65.6598 4.42871C65.6598 3.70215 65.8326 3.08105 66.1783 2.56543C66.5299 2.0498 67.0221 1.6543 67.6549 1.37891C68.2936 1.10352 69.0377 0.96582 69.8873 0.96582C70.5611 0.96582 71.1939 1.03613 71.7857 1.17676C72.3834 1.31738 72.9693 1.5166 73.5436 1.77441L72.8756 3.4707C72.3482 3.25391 71.8355 3.08105 71.3375 2.95215C70.8453 2.82324 70.3414 2.75879 69.8258 2.75879C69.3805 2.75879 69.0025 2.82617 68.692 2.96094C68.3814 3.0957 68.1441 3.28613 67.9801 3.53223C67.8219 3.77246 67.7428 4.05957 67.7428 4.39355C67.7428 4.76855 67.8336 5.08496 68.0152 5.34277C68.2027 5.59473 68.4898 5.82617 68.8766 6.03711C69.2691 6.24805 69.773 6.48242 70.3883 6.74023C71.0973 7.0332 71.6979 7.34082 72.19 7.66309C72.6881 7.98535 73.0689 8.37207 73.3326 8.82324C73.5963 9.26855 73.7281 9.82812 73.7281 10.502Z" fill="white"/>
</svg>
